<?xml version="1.0" encoding="utf-8"?>
<!-- Generator: Adobe Illustrator 27.0.0, SVG Export Plug-In . SVG Version: 6.00 Build 0)  -->
<svg version="1.1" id="图层_1" xmlns="http://www.w3.org/2000/svg" xmlns:xlink="http://www.w3.org/1999/xlink" x="0px" y="0px"
	 viewBox="0 0 595.28 841.89" style="enable-background:new 0 0 595.28 841.89;" xml:space="preserve">
<style type="text/css">
	.st0{fill:#2B2B2B;}
	.st1{filter:url(#Adobe_OpacityMaskFilter);}
	.st2{fill-rule:evenodd;clip-rule:evenodd;fill:#FFFFFF;}
	.st3{mask:url(#mask-4_00000005245122962127249830000011574204356133901195_);fill-rule:evenodd;clip-rule:evenodd;fill:#357DC1;}
	.st4{fill:#357DC1;}
	.st5{fill:none;}
</style>
<g>
	<g>
		<path class="st0" d="M447.35,365.25c-1.57-2.25-3.22-4.45-4.93-6.58c-13.67-16.83-30.92-30.37-49.58-41.13
			c-18.68-10.73-39.08-18.84-60.61-22.42c-10.76-1.63-21.87-2.2-32.89-0.17c-5.48,1.08-10.94,2.81-15.99,5.6
			c-2.5,1.43-4.91,3.09-7.08,5.06c-2.12,2.02-4.14,4.21-5.66,6.76c-1.53,2.52-2.79,5.24-3.53,8.09c-0.46,1.4-0.64,2.86-0.93,4.29
			c-0.13,1.44-0.35,2.89-0.32,4.33c-0.14,5.79,1.12,11.38,2.96,16.62c3.79,10.49,10.06,19.6,17.08,27.77
			c2.72,3.14,5.58,6.14,8.55,9.01l3.66,0c-3.39-3.55-6.6-7.26-9.59-11.13c-6.37-8.33-11.77-17.5-14.73-27.28
			c-1.5-4.86-2.32-9.89-2.05-14.77c0-1.23,0.23-2.42,0.36-3.62c0.28-1.17,0.44-2.37,0.85-3.49c0.65-2.3,1.73-4.44,3.01-6.43
			c1.22-2.04,2.88-3.78,4.6-5.42c1.78-1.6,3.8-2.96,5.93-4.16c4.31-2.34,9.14-3.85,14.1-4.79c9.97-1.88,20.47-1.56,30.74-0.09
			c20.63,3.03,40.65,10.51,59.06,20.65c18.36,10.22,35.4,23.22,48.88,39.33c1.38,1.67,2.72,3.38,4.01,5.13l0.37-1.13H447.35z"/>
		<polygon points="506.15,365.25 508.04,358.65 494.4,358.65 492.04,365.25 447.35,365.25 443.62,365.25 443.26,366.39 
			437.36,384.65 450,384.65 451.56,379.8 452.06,378.22 454.96,378.22 540.1,378.22 537.64,384.65 550.89,384.65 557.37,365.25 		
			"/>
	</g>
	<g transform="translate(181.336300, 0.000000)">
		<g id="Clip-22_00000093168130881318758480000015426217893842504086_">
		</g>
		<defs>
			<filter id="Adobe_OpacityMaskFilter" filterUnits="userSpaceOnUse" x="85.41" y="262.63" width="158.74" height="269.6">
				<feColorMatrix  type="matrix" values="1 0 0 0 0  0 1 0 0 0  0 0 1 0 0  0 0 0 1 0"/>
			</filter>
		</defs>
		
			<mask maskUnits="userSpaceOnUse" x="85.41" y="262.63" width="158.74" height="269.6" id="mask-4_00000005245122962127249830000011574204356133901195_">
			<g class="st1">
				<polygon id="path-3_00000175301449914383945470000000853459357944159894_" class="st2" points="85.41,262.63 244.14,262.63 
					244.14,532.22 85.41,532.22 				"/>
			</g>
		</mask>
		<path id="Fill-21_00000067212888551463375060000014972361435577926803_" class="st3" d="M244.14,262.63
			c-11.4,23.54-23.68,46.57-36.26,69.42c-6.21,11.47-12.73,22.76-19.11,34.13l-19.6,33.84l-20.07,33.56
			c-6.86,11.09-13.55,22.28-20.58,33.27c-13.87,22.09-28.06,43.99-43.12,65.37c11.39-23.55,23.66-46.58,36.24-69.43
			c6.2-11.48,12.74-22.76,19.11-34.13l19.61-33.84l20.09-33.56c6.85-11.09,13.56-22.27,20.58-33.27
			C214.91,305.92,229.09,284.02,244.14,262.63"/>
	</g>
	<path id="Fill-23_00000069383809194434197900000003951075369333773710_" class="st4" d="M473.61,434.05
		c-19.09-9.79-37.85-20.14-56.48-30.68c-9.35-5.22-18.58-10.64-27.87-15.97l-27.68-16.29l-27.49-16.6
		c-9.1-5.64-18.26-11.17-27.3-16.92c-18.14-11.38-36.16-22.97-53.84-35.12c19.09,9.78,37.85,20.13,56.49,30.67
		c9.35,5.22,18.58,10.65,27.87,15.97l27.67,16.3l27.49,16.6c9.1,5.64,18.26,11.18,27.3,16.92
		C437.91,410.33,455.93,421.91,473.61,434.05"/>
	<polygon class="st5" points="237.31,453.22 250.3,453.22 252.95,442.75 240.23,442.75 	"/>
	<polygon class="st4" points="84.43,377.21 83.51,380.63 96.51,380.63 97.45,377.21 124.99,377.21 123.56,382.51 137.59,382.51 
		138.93,377.21 168.91,377.21 168.9,377.21 172.3,364.31 142.19,364.31 143.72,358.3 130.11,358.3 128.48,364.31 100.98,364.31 
		102.63,358.3 89.49,358.3 87.88,364.31 57.45,364.31 57.45,364.31 54.05,377.21 	"/>
	<g>
		<path class="st4" d="M56.87,382.51c0,0-12.35,45.58-17.22,63.5c-4.87,17.93-9.99,20.29-9.99,20.29h15.37
			c2.1-1.52,6.64-14.46,6.64-14.46l10.58-38.47c15.06,0.81,26.76,0.62,33.09,0c2.39-0.23,5.87-0.71,9.27-3.09
			c2.21-1.54,3.62-3.35,4.47-4.64c0.84-1.72,1.68-3.45,2.52-5.17c1.51-5.99,3.03-11.98,4.54-17.97
			C96.39,382.51,76.63,382.51,56.87,382.51z M99.37,397.82c-0.92,3.55-3.36,3.64-3.36,3.64H65.19l1.51-5.92h32.67V397.82z"/>
	</g>
	<polygon class="st4" points="102.69,427.84 105.88,416.27 64.4,416.27 64.4,416.27 61,427.84 	"/>
	<polygon class="st4" points="60.35,430.62 60.35,430.62 56.95,442.19 70.68,442.19 64.3,466.31 78.33,466.31 84.3,442.19 
		98.64,442.19 101.83,430.62 	"/>
	<path class="st4" d="M56.32,444.96c-2.22,13.77-8.9,21.34-8.9,21.34h11.91c6.13-8.61,7.64-21.34,7.64-21.34H56.32z"/>
	<path class="st4" d="M86.94,444.96c-3.76,5.95-4.17,21.34-4.17,21.34H95.1c-2.72-12.27,3.13-21.34,3.13-21.34H86.94z"/>
	<path class="st4" d="M162.42,405.94l3.55-12.84h-5.96l2.9-10.59h-14.27l-2.71,10.59h-26l0.01,0l-3.78,12.84h26.48l-10.33,40.31
		c-1.61,7.56-6.76,7.34-6.76,7.34h-22.05l-3.85,12.71h26.11c12.28,0,18.21-14.49,18.21-14.49l12.55-45.87H162.42z"/>
	<polygon class="st4" points="123.56,445.45 131.9,414.17 117.63,414.17 108.76,445.45 	"/>
	<polygon class="st4" points="209.37,377.56 208.46,380.99 221.46,380.99 222.4,377.56 249.94,377.56 248.5,382.87 262.53,382.87 
		263.87,377.56 293.85,377.56 293.85,377.56 297.25,364.66 267.14,364.66 268.66,358.65 255.06,358.65 253.43,364.66 225.93,364.66 
		227.57,358.65 214.43,358.65 212.82,364.66 182.39,364.66 182.4,364.66 178.99,377.56 	"/>
	<polygon class="st4" points="200.94,384.31 186.89,384.31 175.23,426.05 189.54,426.05 	"/>
	<polygon class="st4" points="195.24,426.05 210.48,426.05 221.21,384.31 207.3,384.31 	"/>
	<path class="st4" d="M246.92,388.15v-3.84h-14.71c-2.92,23.19-17.76,41.74-17.76,41.74h15.9c8.08-10.6,12.19-24.78,12.19-24.78
		h35.78l3.45-13.12H246.92z"/>
	<path class="st4" d="M238.12,422.47h31.33l4.64-13.38h-30.48C243.61,409.09,242.57,415.98,238.12,422.47z"/>
	<path class="st4" d="M264.34,452.65c2.52-12.42,2.19-14.77-0.65-19.15c-2.84-4.38-7.58-4.14-7.58-4.14h-60.86l-4.11,13.39h8.85
		l-3,10.47h-14.61l6.49-23.86h-14.28l-6.05,23.86h-9.64l-3.85,13.09h114.93l3.63-13.09h-9.39L264.34,452.65z M223.6,453.22h-12.99
		l2.92-10.47h12.72L223.6,453.22z M250.3,453.22h-12.99l2.92-10.47h12.72L250.3,453.22z"/>
	<path d="M354.74,384.93l3.27-12.51h-17.36l3.68-13.77h-13.33l-3.75,13.77h-17.52l-4.09,12.51h18.21l-19.96,73.3
		c-0.94,3.39-3.62,8.08-3.62,8.08h15.31l21.74-81.38H354.74z"/>
	<path d="M318.03,392.18h-13.91l-15.67,58.24c-4.44,15.3-8.77,15.88-8.77,15.88h15.95c3.91-6.71,6.38-15.3,6.38-15.3L318.03,392.18z
		"/>
	<path d="M339.03,392.18l-14.29,57.16c-1.21,6.95-5.82,16.49-5.82,16.49l14.21,0.48l19.36-74.13H339.03z"/>
	<path d="M378.35,388.34c-2.6-9.09,5.09-29.69,5.09-29.69h-13.68c-6.59,14.54-6.19,29.69-6.19,29.69H378.35z"/>
	<path d="M417.18,388.34c5.99-10.98,9.98-29.69,9.98-29.69h-13.18c-3.59,20.83-11.68,29.69-11.68,29.69H417.18z"/>
	<path d="M396.7,392.57l9.03-33.92h-13.92l-9.74,33.92h-24.05l-3.75,12.56h50.25l-5.18,15.6h-43.79l-3.62,12.26h44.4
		c0,6.18-3.15,11.95-7.3,16.1c-4.15,4.15-9.78,4.01-9.78,4.01h-37.63l-4.01,12.54h32.74c9.78-0.33,12.26-0.82,12.26-0.82
		c22.51-4.64,25.76-25.06,25.76-25.06l12.53-47.19H396.7z"/>
	<path d="M520.63,388.83c0.94-3.54,1.48-5.96,1.48-5.96h-13.66l-1.38,5.96h-27.78l1.56-5.96h-13.14l-1.53,5.96h-30.61l0.01,0
		l-3.4,12.9h30.7l-1.14,4.46h13l1.17-4.46h27.03c-0.92,2.2-1.88,4.17-2.65,4.97c-2.15,2.22-8.98,2.03-8.98,2.03h-52.32l-4.06,12.24
		h57.49c3.99-0.14,16.84-2.71,21.57-12.78c0.94-2,1.82-4.2,2.64-6.45h30.4l-0.01,0l3.4-12.9H520.63z"/>
	<path d="M517.96,408.6c-2.64,8.74-11.58,12.36-11.58,12.36h26.23l3.65-12.36H517.96z"/>
	<path d="M426.14,424.67L426.14,424.67l-3.4,12.9h27.87c-0.23,1.8-0.74,4.34-1.83,7.66c-2.43,7.42-7.86,8.57-11.63,8.18l-18.18-0.01
		l-3.79,12.24h24.64c1.97-0.09,4.98-0.46,8.29-1.87c7.35-3.14,10.89-9.17,12.18-11.42c2.54-4.46,3.29-8.66,3.78-11.35
		c0.21-1.19,0.36-2.34,0.47-3.43h9.2l-7.87,28.07h12.67l8-28.07h9.17l-2.06,8.73c-4.81,17.5,13.24,19.85,13.24,19.85h23.47
		c0.29-4.25,3.3-12.97,3.3-12.97h-21.55c-7.26,0-4.76-7.84-4.76-7.84l2.21-7.77h28.07l-0.01,0l3.4-12.9H426.14z"/>
	<g>
		<path d="M345.43,479.85c0,0.28-0.03,0.57-0.08,0.88c-0.05,0.31-0.1,0.61-0.15,0.88c-0.65,3.36-2.87,5.3-6.66,5.83
			c1.68,0.13,2.94,0.54,3.78,1.24c0.84,0.7,1.26,1.75,1.26,3.16c0,0.3-0.03,0.63-0.08,1c-0.05,0.36-0.11,0.72-0.19,1.07
			c-0.3,1.4-0.81,2.56-1.54,3.46c-0.73,0.9-1.59,1.61-2.58,2.12c-0.99,0.51-2.09,0.86-3.29,1.05c-1.2,0.19-2.43,0.28-3.68,0.28
			h-10.68l5.45-25.57h10.64c1.15,0,2.21,0.07,3.16,0.21c0.95,0.14,1.77,0.38,2.46,0.73c0.69,0.35,1.22,0.82,1.6,1.41
			C345.24,478.21,345.43,478.95,345.43,479.85z M337.65,491.81c0-0.95-0.3-1.6-0.9-1.94c-0.6-0.34-1.39-0.51-2.37-0.51h-4.55
			l-1.62,7.59h3.91c0.78,0,1.46-0.05,2.05-0.15c0.59-0.1,1.1-0.29,1.52-0.58c0.43-0.29,0.78-0.67,1.07-1.15
			c0.29-0.48,0.52-1.09,0.7-1.84C337.59,492.69,337.65,492.21,337.65,491.81z M339.34,481.13c0-0.73-0.26-1.24-0.77-1.54
			c-0.51-0.3-1.32-0.45-2.42-0.45h-4.17l-1.35,6.5h4.32c1.33,0,2.32-0.32,2.97-0.96c0.65-0.64,1.08-1.43,1.28-2.39
			c0.05-0.2,0.09-0.4,0.11-0.6C339.33,481.5,339.34,481.31,339.34,481.13z"/>
		<path d="M357.58,473.61l-5.79,27.22h-5.49l5.79-27.22H357.58z"/>
		<path d="M378.37,481.58l-3.95,18.46c-1.05,0.3-2.39,0.58-4.02,0.85c-1.63,0.26-3.35,0.39-5.15,0.39c-1.35,0-2.5-0.08-3.44-0.24
			c-0.94-0.16-1.69-0.43-2.26-0.79c-0.56-0.36-0.97-0.84-1.22-1.43c-0.25-0.59-0.38-1.32-0.38-2.2c0-0.68,0.07-1.44,0.21-2.29
			c0.14-0.85,0.32-1.82,0.55-2.9l2.11-9.85h5.49l-2.11,9.85c-0.18,0.8-0.31,1.5-0.39,2.09c-0.09,0.59-0.13,1.1-0.13,1.52
			c0,0.83,0.2,1.39,0.6,1.67c0.4,0.29,1.08,0.43,2.03,0.43c0.55,0,1.13-0.04,1.73-0.13c0.6-0.09,1.14-0.19,1.62-0.32l3.23-15.11
			H378.37z"/>
		<path d="M399.16,485.98c0,0.18-0.01,0.39-0.02,0.66c-0.01,0.26-0.04,0.48-0.09,0.66c-0.2,0.9-0.58,1.7-1.15,2.39
			c-0.56,0.69-1.38,1.28-2.44,1.77c-1.07,0.49-2.42,0.86-4.06,1.11c-1.64,0.25-3.64,0.38-6,0.38c-0.05,0.23-0.09,0.47-0.11,0.73
			c-0.03,0.26-0.04,0.5-0.04,0.7c0,0.43,0.06,0.81,0.19,1.17c0.13,0.35,0.36,0.65,0.7,0.9c0.34,0.25,0.79,0.45,1.35,0.58
			c0.56,0.14,1.28,0.21,2.16,0.21c0.55,0,1.13-0.02,1.73-0.08c0.6-0.05,1.18-0.11,1.73-0.19c0.55-0.08,1.05-0.16,1.5-0.24
			c0.45-0.09,0.81-0.17,1.09-0.24l-0.56,3.83c-0.68,0.23-1.74,0.45-3.2,0.66c-1.45,0.21-3.23,0.32-5.34,0.32
			c-2.46,0-4.19-0.49-5.21-1.47c-1.02-0.98-1.52-2.43-1.52-4.36c0-0.65,0.05-1.38,0.15-2.18c0.1-0.8,0.23-1.57,0.38-2.29
			c0.68-3.18,1.92-5.62,3.74-7.31c1.82-1.69,4.39-2.54,7.73-2.54c1.35,0,2.49,0.13,3.42,0.39c0.93,0.26,1.68,0.62,2.26,1.07
			c0.58,0.45,0.99,0.97,1.24,1.56C399.03,484.75,399.16,485.36,399.16,485.98z M393.93,486.66c0-0.5-0.21-0.95-0.64-1.33
			c-0.43-0.39-1.17-0.58-2.22-0.58c-0.73,0-1.36,0.13-1.9,0.39c-0.54,0.26-1.01,0.61-1.41,1.05c-0.4,0.44-0.73,0.94-1,1.5
			c-0.26,0.56-0.48,1.16-0.66,1.79c1.2,0,2.29-0.04,3.25-0.13c0.96-0.09,1.79-0.23,2.46-0.43c0.68-0.2,1.2-0.48,1.56-0.85
			C393.75,487.71,393.93,487.24,393.93,486.66z"/>
		<path d="M422.92,500.83h-5.9l-0.6-6.13h-9.21l-3.23,6.13h-5.79l14.17-25.57h7.29L422.92,500.83z M416.19,490.61l-1.17-11.28
			l-5.83,11.28H416.19z"/>
		<path d="M441.76,481.36l-1.13,4.06c-0.2-0.05-0.55-0.08-1.05-0.09c-0.5-0.01-1-0.02-1.5-0.02c-0.73,0-1.39,0.06-1.97,0.19
			c-0.59,0.13-1.02,0.23-1.3,0.3l-3.23,15.04h-5.49l3.91-18.46c0.38-0.13,0.86-0.26,1.45-0.41c0.59-0.15,1.24-0.29,1.95-0.41
			c0.71-0.13,1.47-0.23,2.26-0.3c0.79-0.08,1.59-0.11,2.39-0.11c0.9,0,1.7,0.03,2.39,0.08
			C441.11,481.26,441.56,481.31,441.76,481.36z"/>
		<path d="M458.71,481.96l-1.05,3.84c-0.18-0.08-0.41-0.14-0.7-0.21c-0.29-0.06-0.6-0.12-0.92-0.17c-0.33-0.05-0.66-0.09-1.01-0.11
			c-0.35-0.02-0.68-0.04-0.98-0.04c-1.08,0-1.97,0.15-2.69,0.45c-0.71,0.3-1.3,0.71-1.77,1.24c-0.46,0.53-0.83,1.13-1.11,1.82
			c-0.28,0.69-0.5,1.42-0.68,2.2c-0.13,0.48-0.23,0.98-0.3,1.52c-0.08,0.54-0.11,1.02-0.11,1.45c0,0.98,0.27,1.75,0.81,2.33
			c0.54,0.58,1.57,0.86,3.1,0.86c0.73,0,1.5-0.06,2.33-0.19c0.83-0.13,1.49-0.28,1.99-0.45l-0.6,3.87
			c-1.05,0.35-2.11,0.59-3.16,0.71c-1.05,0.13-2.06,0.19-3.01,0.19c-2.66,0-4.54-0.5-5.64-1.5c-1.1-1-1.65-2.51-1.65-4.51
			c0-0.63,0.05-1.32,0.15-2.09c0.1-0.76,0.23-1.5,0.38-2.2c0.68-3.28,1.96-5.75,3.85-7.39c1.89-1.64,4.54-2.46,7.95-2.46
			c0.45,0,0.93,0.03,1.43,0.08c0.5,0.05,0.98,0.11,1.43,0.19c0.45,0.08,0.85,0.16,1.2,0.26
			C458.31,481.76,458.56,481.86,458.71,481.96z"/>
		<path d="M479.39,485.83c0,0.68-0.06,1.44-0.19,2.29c-0.13,0.85-0.3,1.8-0.53,2.86l-2.11,9.85h-5.49l2.11-9.85
			c0.33-1.48,0.49-2.64,0.49-3.5c0-0.88-0.21-1.47-0.62-1.77c-0.41-0.3-1.1-0.45-2.05-0.45c-0.3,0-0.61,0.02-0.94,0.06
			c-0.33,0.04-0.65,0.08-0.98,0.13c-0.33,0.05-0.61,0.1-0.86,0.15c-0.25,0.05-0.45,0.1-0.6,0.15l-3.23,15.08h-5.49l5.79-27.22h5.49
			l-1.73,8.2c0.15-0.08,0.39-0.15,0.73-0.23c0.34-0.08,0.71-0.14,1.13-0.21c0.41-0.06,0.85-0.12,1.3-0.17
			c0.45-0.05,0.89-0.08,1.32-0.08c2.38,0,4.05,0.36,5.02,1.09C478.91,482.95,479.39,484.15,479.39,485.83z"/>
		<path d="M491.2,481.58l-4.1,19.25h-5.49l4.1-19.25H491.2z M492.93,475.34c0,1.2-0.36,2.11-1.07,2.71s-1.67,0.9-2.88,0.9
			c-0.98,0-1.67-0.16-2.07-0.47c-0.4-0.31-0.6-0.78-0.6-1.41c0-1.2,0.34-2.11,1.03-2.73c0.69-0.61,1.64-0.92,2.84-0.92
			c0.98,0,1.68,0.17,2.11,0.51C492.71,474.27,492.93,474.74,492.93,475.34z"/>
		<path d="M514.36,481.58l-10.3,19.25h-7.29l-2.14-19.25h6.09l0.68,14.93l6.96-14.93H514.36z"/>
		<path d="M533.68,485.98c0,0.18-0.01,0.39-0.02,0.66c-0.01,0.26-0.04,0.48-0.09,0.66c-0.2,0.9-0.58,1.7-1.15,2.39
			c-0.56,0.69-1.38,1.28-2.44,1.77c-1.07,0.49-2.42,0.86-4.06,1.11c-1.64,0.25-3.64,0.38-6,0.38c-0.05,0.23-0.09,0.47-0.11,0.73
			c-0.03,0.26-0.04,0.5-0.04,0.7c0,0.43,0.06,0.81,0.19,1.17c0.13,0.35,0.36,0.65,0.7,0.9c0.34,0.25,0.79,0.45,1.35,0.58
			c0.56,0.14,1.28,0.21,2.16,0.21c0.55,0,1.13-0.02,1.73-0.08c0.6-0.05,1.18-0.11,1.73-0.19c0.55-0.08,1.05-0.16,1.5-0.24
			c0.45-0.09,0.81-0.17,1.09-0.24l-0.56,3.83c-0.68,0.23-1.74,0.45-3.2,0.66c-1.45,0.21-3.23,0.32-5.34,0.32
			c-2.46,0-4.19-0.49-5.21-1.47c-1.02-0.98-1.52-2.43-1.52-4.36c0-0.65,0.05-1.38,0.15-2.18c0.1-0.8,0.23-1.57,0.38-2.29
			c0.68-3.18,1.92-5.62,3.74-7.31c1.82-1.69,4.39-2.54,7.73-2.54c1.35,0,2.49,0.13,3.42,0.39c0.93,0.26,1.68,0.62,2.26,1.07
			c0.58,0.45,0.99,0.97,1.24,1.56C533.56,484.75,533.68,485.36,533.68,485.98z M528.46,486.66c0-0.5-0.21-0.95-0.64-1.33
			c-0.43-0.39-1.17-0.58-2.22-0.58c-0.73,0-1.36,0.13-1.9,0.39c-0.54,0.26-1.01,0.61-1.41,1.05c-0.4,0.44-0.73,0.94-1,1.5
			c-0.26,0.56-0.48,1.16-0.66,1.79c1.2,0,2.29-0.04,3.25-0.13c0.96-0.09,1.79-0.23,2.46-0.43c0.68-0.2,1.2-0.48,1.56-0.85
			C528.27,487.71,528.46,487.24,528.46,486.66z"/>
	</g>
</g>
<g>
</g>
<g>
</g>
<g>
</g>
<g>
</g>
<g>
</g>
<g>
</g>
</svg>
